<svg xmlns="http://www.w3.org/2000/svg" viewBox="0 0 1925.89 1083"><g id="BG"><rect x="5.89" y="2" width="1920" height="1080" fill="#47251c"/></g><g id="rocks_shade" opacity="0.3"><path d="M1613,1078s18-30,63-30h213v30Z" transform="translate(5.89 2)" fill="#170c09"/><path d="M-1,781s180-7,201,36-18,129-49,161S-1,1064-1,1064Z" transform="translate(5.89 2)" fill="#170c09"/><path d="M7,1064c29-21,246-24,266-12s20,26,20,26H7S-22,1085,7,1064Z" transform="translate(5.89 2)" fill="#170c09"/><path d="M204,961.48c0,15.86,74.32,81.59,110.41,77s62.11-29.46,89.71-22.66,55.21,33.24,67.42,22.66-55.74-105-70.6-115.58-167.21-24.17-181.55-11.33S204,961.48,204,961.48Z" transform="translate(5.89 2)" fill="#170c09"/><path d="M228.54,718c-15.29,20-12.63,123-12.63,123l212.76,31s63.16-82,54.52-95S228.54,718,228.54,718Z" transform="translate(5.89 2)" fill="#170c09"/><path d="M1613,988c0,19,276,31,276,31V942s-188-17-221,0S1613,969,1613,988Z" transform="translate(5.89 2)" fill="#170c09"/><path d="M1640,776c-15,18-14,113,12,123s237,14,237,14V776Z" transform="translate(5.89 2)" fill="#170c09"/><path d="M1441.54,905.12s-13.4,125.33-8.44,133.33,141.43,18.67,146.39,14,11.42-141.33,6.46-142S1441.54,905.12,1441.54,905.12Z" transform="translate(5.89 2)" fill="#170c09"/><path d="M544.86,1001s-54.29,29.44-52.3,35.48,108.58,32.15,124.47,32.15H720.31s.66,3.68,15.23,4.39,54.29,2,54.29,2l81.43-7.45s38.4-49.54,23.84-58.41S544.86,1001,544.86,1001Z" transform="translate(5.89 2)" fill="#170c09"/><path d="M1654,20s67,79,40,87-406,10-451-7-31-78.4-13-80Z" transform="translate(5.89 2)" fill="#170c09"/><path d="M1672,509c12-24,218,0,218,0v57s-111,23-160,0S1660,533,1672,509Z" transform="translate(5.89 2)" fill="#170c09"/><path d="M668,18s-22,40-15,57S820,98,873,90s93,4,93,4l31-13,39,13s44.68,13.46,72,0c27.83-13.71,29-76,29-76Z" transform="translate(5.89 2)" fill="#170c09"/><path d="M1489,126s-25,34-43,44-50,26-28,46,112,37,158,39,313,0,313,0,0-96-21-118S1489,126,1489,126Z" transform="translate(5.89 2)" fill="#170c09"/><polygon points="1742.89 36 1742.89 95 1894.89 109 1894.89 36 1742.89 36" fill="#170c09"/><path d="M115,18s34,56,83,62,41-12,44-9,27,23,66,19,61,10,119,1c15.81-2.45,4-19,35,0s120-6,120-6l13-67Z" transform="translate(5.89 2)" fill="#170c09"/><path d="M1413.61,287.17s-10.31-.66-16.36,25.55.71,60.28,12.81,73.39,77.9,15.72,77.9,15.72l78.25-9.17s5.7-37.35,28.46-64.21,6-41.28,6-41.28Z" transform="translate(5.89 2)" fill="#170c09"/><path d="M1669,302c-48,33-74,103-61,134s96.06,32.76,180,29c67-3,101-15,101-15V311Z" transform="translate(5.89 2)" fill="#170c09"/><path d="M-1,84s14,17,55,0,51-66,51-66H-1Z" transform="translate(5.89 2)" fill="#170c09"/><path d="M-1,100l254-8s28,11,32,37,45-5,70,14,27,80,27,80-61,11-107,0S-1,242-1,242Z" transform="translate(5.89 2)" fill="#170c09"/><path d="M-1,264s162-10,176,9-18,47-42,65-18,43-18,43H-1Z" transform="translate(5.89 2)" fill="#170c09"/><path d="M312,249s-37,47-33,95,93,29,111,36,39,20,48-11,30-94-21-109S312,249,312,249Z" transform="translate(5.89 2)" fill="#170c09"/><path d="M-1,401s90.44-26.83,129.31,16.88,21.35,89.41,46.5,139.09,48.79,91.39,38.88,132.13S-1,724.81-1,724.81Z" transform="translate(5.89 2)" fill="#170c09"/><path d="M199.13,427.29c7.56-23,210.5-11.92,221.83,0s0,134.24,0,134.24-159.76,28.6-181.89,0-50.73-53.22-30.22-85.79S191.58,450.32,199.13,427.29Z" transform="translate(5.89 2)" fill="#170c09"/><path d="M1412,485.37c7.28-14.15,184.22-16.65,190.94-11.65S1641,586.15,1641,586.15l-200.47,6.66S1404.7,499.53,1412,485.37Z" transform="translate(5.89 2)" fill="#170c09"/><path d="M1513.34,630c18.42-47,375.66,0,375.66,0V741s-300.94,16-352.12-8S1494.91,677,1513.34,630Z" transform="translate(5.89 2)" fill="#170c09"/><path d="M1559.31,774.51c5.69,17.85,5.69,75.55,5.69,75.55s-123.3,11.3-133.6-7.14.35-16.06,3.19-38.67,19.9-72,19.9-72S1553.63,756.67,1559.31,774.51Z" transform="translate(5.89 2)" fill="#170c09"/><path d="M293,599s-18,39,15,71,82,32,82,32-5,16,14,32,82,0,82,0,11-126-8-135S293,599,293,599Z" transform="translate(5.89 2)" fill="#170c09"/><path d="M934,1079.18s24-34.75,47-53,92,10.67,99,7,39-3.38,65,.27,27,4.55,40,2.73,90-19.15,119-13.68,63,58.47,63,58.47Z" transform="translate(5.89 2)" fill="#170c09"/></g><g id="Rocks"><path d="M1643,1078s18-50,63-50h213v50Z" transform="translate(5.89 2)" fill="#a56832"/><path d="M-1,761s210-7,231,36-18,129-49,161S-1,1044-1,1044Z" transform="translate(5.89 2)" fill="#a56832"/><path d="M37,1044c29-21,246-24,266-12s20,46,20,46H37S8,1065,37,1044Z" transform="translate(5.89 2)" fill="#a56832"/><path d="M234,941.48c0,15.86,74.32,81.59,110.41,77s62.11-29.46,89.71-22.66,55.21,33.24,67.42,22.66-55.74-105-70.6-115.58-167.21-24.17-181.55-11.33S234,941.48,234,941.48Z" transform="translate(5.89 2)" fill="#a56832"/><path d="M258.54,698c-15.29,20-12.63,123-12.63,123l212.76,31s63.16-82,54.52-95S258.54,698,258.54,698Z" transform="translate(5.89 2)" fill="#a56832"/><path d="M1643,968c0,19,276,31,276,31V922s-188-17-221,0S1643,949,1643,968Z" transform="translate(5.89 2)" fill="#a56832"/><path d="M1670,756c-15,18-14,113,12,123s237,14,237,14V756Z" transform="translate(5.89 2)" fill="#a56832"/><path d="M1471.54,885.12s-13.4,125.33-8.44,133.33,141.43,18.67,146.39,14,11.42-141.33,6.46-142S1471.54,885.12,1471.54,885.12Z" transform="translate(5.89 2)" fill="#a56832"/><path d="M574.86,981s-54.29,29.44-52.3,35.48,108.58,52.15,124.47,52.15H750.31s.66-16.32,15.23-15.61,54.29,22,54.29,22l81.43-7.45s38.4-69.54,23.84-78.41S574.86,981,574.86,981Z" transform="translate(5.89 2)" fill="#a56832"/><path d="M1684,0s67,79,40,87-406,10-451-7-31-78.4-13-80Z" transform="translate(5.89 2)" fill="#a56832"/><path d="M1702,489c12-24,218,0,218,0v57s-111,23-160,0S1690,513,1702,489Z" transform="translate(5.89 2)" fill="#a56832"/><path d="M698-2s-22,40-15,57S850,78,903,70s93,4,93,4l31-13,39,13s44.68,13.46,72,0c27.83-13.71,29-76,29-76Z" transform="translate(5.89 2)" fill="#a56832"/><path d="M1519,106s-25,34-43,44-50,26-28,46,112,37,158,39,313,0,313,0,0-96-21-118S1519,106,1519,106Z" transform="translate(5.89 2)" fill="#a56832"/><polygon points="1772.89 16 1772.89 75 1924.89 89 1924.89 16 1772.89 16" fill="#a56832"/><path d="M145-2s34,56,83,62,41-12,44-9,27,23,66,19,61,10,119,1c15.81-2.45,4-19,35,0s120-6,120-6L625-2Z" transform="translate(5.89 2)" fill="#a56832"/><path d="M1443.61,267.17s-10.31-.66-16.36,25.55.71,60.28,12.81,73.39,77.9,15.72,77.9,15.72l78.25-9.17s5.7-37.35,28.46-64.21,6-41.28,6-41.28Z" transform="translate(5.89 2)" fill="#a56832"/><path d="M1699,282c-48,33-74,103-61,134s96.06,32.76,180,29c67-3,101-15,101-15V291Z" transform="translate(5.89 2)" fill="#a56832"/><path d="M-1,64s44,17,85,0S135-2,135-2H-1Z" transform="translate(5.89 2)" fill="#a56832"/><path d="M-1,80l284-8s28,11,32,37,45-5,70,14,27,80,27,80-61,11-107,0S-1,222-1,222Z" transform="translate(5.89 2)" fill="#a56832"/><path d="M-1,244s192-10,206,9-18,47-42,65-18,43-18,43H-1Z" transform="translate(5.89 2)" fill="#a56832"/><path d="M342,229s-37,47-33,95,93,29,111,36,39,20,48-11,30-94-21-109S342,229,342,229Z" transform="translate(5.89 2)" fill="#a56832"/><path d="M-1,381s120.44-26.83,159.31,16.88,21.35,89.41,46.5,139.09,48.79,91.39,38.88,132.13S-1,704.81-1,704.81Z" transform="translate(5.89 2)" fill="#a56832"/><path d="M229.13,407.29c7.56-23,210.5-11.92,221.83,0s0,134.24,0,134.24-159.76,28.6-181.89,0-50.73-53.22-30.22-85.79S221.58,430.32,229.13,407.29Z" transform="translate(5.89 2)" fill="#a56832"/><path d="M1442,465.37c7.28-14.15,184.22-16.65,190.94-11.65S1671,566.15,1671,566.15l-200.47,6.66S1434.7,479.53,1442,465.37Z" transform="translate(5.89 2)" fill="#a56832"/><path d="M1543.34,610c18.42-47,375.66,0,375.66,0V721s-300.94,16-352.12-8S1524.91,657,1543.34,610Z" transform="translate(5.89 2)" fill="#a56832"/><path d="M1589.31,754.51c5.69,17.85,5.69,75.55,5.69,75.55s-123.3,11.3-133.6-7.14.35-16.06,3.19-38.67,19.9-72,19.9-72S1583.63,736.67,1589.31,754.51Z" transform="translate(5.89 2)" fill="#a56832"/><path d="M323,579s-18,39,15,71,82,32,82,32-5,16,14,32,82,0,82,0,11-126-8-135S323,579,323,579Z" transform="translate(5.89 2)" fill="#a56832"/><path d="M964,1079.18s24-54.75,47-73,92,10.67,99,7,39-3.38,65,.27,27,4.55,40,2.73,90-19.15,119-13.68,63,78.47,63,78.47Z" transform="translate(5.89 2)" fill="#a56832"/></g><g id="shadows"><path d="M1659.23,1068a167.71,167.71,0,0,1,7-15.84,111.7,111.7,0,0,1,9.24-15.3C1652.64,1051.22,1643,1078,1643,1078h276v-10Z" transform="translate(5.89 2)" fill="#70452e"/><path d="M176,937C152.63,958,57.2,992.25-1,1011.46V1044s151-54,182-86c26.21-27,58.13-92.69,54.69-138.33C232.38,859.66,203.08,912.76,176,937Z" transform="translate(5.89 2)" fill="#70452e"/><path d="M39.69,1068c-2.57-3-5.4-7.62-5.57-11-.11-2.14,1.05-7.29,5.56-14.6A21.53,21.53,0,0,0,37,1044c-29,21,0,34,0,34H323a77.41,77.41,0,0,0-.85-10Z" transform="translate(5.89 2)" fill="#70452e"/><path d="M476.39,1001.72c-10.58-6.13-22.58-13.09-34.67-16.31A42,42,0,0,0,430.67,984c-13.53,0-26.73,6-40.71,12.38-13.2,6-26.86,12.23-42.44,14.35a24.11,24.11,0,0,1-3.36.22c-15.2,0-39.39-12.67-64.71-33.9S241,937.55,239.33,932.25c.31-7.94,2-24.55,6.62-36.77-11.06,15.15-11.95,46-11.95,46,0,15.86,74.32,81.59,110.41,77s62.11-29.46,89.71-22.66,55.21,33.24,67.42,22.66c1.15-1,1.59-2.74,1.43-5.09C496.46,1013.35,486.71,1007.71,476.39,1001.72Z" transform="translate(5.89 2)" fill="#70452e"/><path d="M252.42,808c-.09-11.1-.07-30.21.76-50.26,1.35-32.2,4.06-49.87,6.45-59.51l-1.09-.2c-15.29,20-12.63,123-12.63,123l212.76,31s3.23-4.2,8.13-10.84Z" transform="translate(5.89 2)" fill="#70452e"/><path d="M1801.6,979.05c-107.3-10-138.75-18.94-147.93-23.24,1.58-5.73,5.76-11,12.44-16.8-14.51,8.75-23.11,17.11-23.11,29,0,19,276,31,276,31V988C1894.14,986.49,1848.41,983.41,1801.6,979.05Z" transform="translate(5.89 2)" fill="#70452e"/><path d="M1687.26,867.76c-3.07-1.23-8-8-11.81-23.13-7.39-29.33-6.1-68.7-1.32-88.63H1670c-15,18-14,113,12,123s237,14,237,14V882.42C1829.08,880.16,1705.05,874.82,1687.26,867.76Z" transform="translate(5.89 2)" fill="#70452e"/><path d="M1602.92,1026.92h0c-17.1,0-49.44-2.17-78.65-5.29-36.74-3.91-52.51-7.48-57.08-9.37-.42-4.71-.7-20.87,3.63-74.55,1.63-20.12,3.43-39.69,4.65-52.46l-3.92-.13s-13.4,125.33-8.44,133.33,141.43,18.67,146.39,14c.54-.5,1.09-2.54,1.65-5.78C1609.46,1026.81,1606.87,1026.92,1602.92,1026.92Z" transform="translate(5.89 2)" fill="#70452e"/><path d="M835.77,1071.19c-10.83-6.16-42.39-23.42-57.54-24.22-.52,0-1,0-1.55,0-7.83,0-12.81,2.89-16,6.54a15.58,15.58,0,0,1,4.84-.47c14.56.71,54.29,22,54.29,22l81.43-7.45s.6-1.09,1.63-3Z" transform="translate(5.89 2)" fill="#70452e"/><path d="M655.8,1064.36c-4.31-.32-25.45-7.41-64.13-25.18-31.15-14.31-53.21-26.19-57.08-29.68.75-1.33,4.75-6.18,25.73-19.92,1.93-1.27,3.87-2.51,5.75-3.72-15.27,8.64-45,26.11-43.51,30.6,2,6,108.58,52.15,124.47,52.15H750.31a21.73,21.73,0,0,1,.73-4.25Z" transform="translate(5.89 2)" fill="#70452e"/><path d="M1549,83c-142,0-251.11-6.79-271.44-16.88-21.19-10.53-24.54-35-24.65-48.61A87,87,0,0,1,1254,2.84C1239.54,15.31,1233.24,65,1273,80c45,17,424,15,451,7,4.68-1.39,6.53-4.91,6.4-9.78C1704.69,80.25,1637.31,83,1549,83Z" transform="translate(5.89 2)" fill="#70452e"/><path d="M1767,523c-30.49-13.63-54.56-24.4-57.9-33.56a8.44,8.44,0,0,1,.12-5.59c-3.69,1.4-6.19,3.12-7.23,5.2-12,24,9,34,58,57s160,0,160,0V523.71c-16.45,2.79-54.56,8.51-91,8.51C1801.61,532.22,1780.77,529.1,1767,523Z" transform="translate(5.89 2)" fill="#70452e"/><path d="M1126.55,70h0c-19.69,0-38.28-6.68-40-7.3L1042.2,44l-32.78,17.37c-8.26-2.59-29.45-8.21-58-8.21a214.32,214.32,0,0,0-40.18,3.79c-15.15,2.89-39.94,4.48-69.78,4.48-33.29,0-68.5-2-96.62-5.48-38.67-4.79-50.16-10.63-53-12.55C690.29,34.29,695.05,15.05,701-2h-3s-22,40-15,57S850,78,903,70s93,4,93,4l31-13,39,13s44.68,13.46,72,0a30.66,30.66,0,0,0,9.31-7.28A60.26,60.26,0,0,1,1126.55,70Z" transform="translate(5.89 2)" fill="#70452e"/><path d="M1719.48,225.89h0c-56.19,0-91.79-.37-105.83-1.09-48.45-2.48-138.83-23.58-158.72-44.89-1.74-1.87-4.62-5.41-4.35-8.17.36-3.58,3.82-7.78,8.4-11.9-14.72,9.5-26.77,21.8-11,36.16,22,20,112,37,158,39s313,0,313,0,0-3.79-.17-10C1878.89,225.28,1791.3,225.89,1719.48,225.89Z" transform="translate(5.89 2)" fill="#70452e"/><polygon points="1782.89 60.97 1782.89 16 1772.89 16 1772.89 75 1924.89 89 1924.89 76.12 1782.89 60.97" fill="#70452e"/><path d="M537.56,68.13h0c-18.07,0-27-3.59-31.34-6.6-12.65-8.8-19.91-12.23-25.9-12.23-7.7,0-11.68,5.52-13.59,8.17-1.41,2-1.56,2.16-3.4,2.48A212.71,212.71,0,0,1,426,63.4c-13.78,0-25.32-1.49-36.47-2.94-10.62-1.37-20.65-2.67-31.92-2.67a136.48,136.48,0,0,0-16,.92,81.06,81.06,0,0,1-9.42.55c-31.52,0-49.88-19.16-50.05-19.36a10.24,10.24,0,0,0-7.81-3.81c-1.76,0-7.69.64-10.27,8.83l-.1.35c-.44.41-3.79,3.15-15.91,3.15A126.18,126.18,0,0,1,231,47.07C202,43,178,16.4,164.7-2H145s34,56,83,62,41-12,44-9,27,23,66,19,61,10,119,1c15.81-2.45,4-19,35,0s120-6,120-6l1.85-9.55C599.14,59.59,565.45,68.13,537.56,68.13Z" transform="translate(5.89 2)" fill="#70452e"/><path d="M1631.38,267.82c-.41-.43-.66-.65-.66-.65H1443.61a5.93,5.93,0,0,0-2.59.65Z" transform="translate(5.89 2)" fill="#70452e"/><path d="M1626.39,297c-20,22.66-27.88,52.28-30.28,63.47l-78.74,8.88c-27.12-1.06-70.43-5.86-79-14.82-6.91-7.21-11.7-21.35-13.25-36.3.77,19.62,6.59,38.77,15,47.85,12.09,13.1,77.9,15.72,77.9,15.72l78.25-9.17s5.7-37.35,28.46-64.21c10.17-12,12.46-21.52,11.88-28.37C1635.56,283.86,1633,289.59,1626.39,297Z" transform="translate(5.89 2)" fill="#70452e"/><path d="M1831.29,434.73c-23,1.14-42.84,1.7-60.57,1.7h0c-97.71,0-119.19-18.19-123.3-29-5.63-14.88-2.41-42.3,8.21-69.86a203.2,203.2,0,0,1,11.48-24.67c-26.75,35-38.83,80-29.11,103.13,13,31,96.06,32.76,180,29,67-3,101-15,101-15v-7.19C1901.75,427.09,1872.36,432.7,1831.29,434.73Z" transform="translate(5.89 2)" fill="#70452e"/><path d="M81.06,53.49c-14.22,5.35-30.24,8.07-47.63,8.07h0A186.78,186.78,0,0,1-1,58.22V64s44,17,85,0S135-2,135-2C127.89,14.77,112.07,41.82,81.06,53.49Z" transform="translate(5.89 2)" fill="#70452e"/><path d="M342.7,119.25c5.39,0,11.12-.94,17.18-1.93l5.25-.83c-8.86-.37-18,1.44-26.06,2.59C340.22,119.19,341.43,119.25,342.7,119.25Z" transform="translate(5.89 2)" fill="#70452e"/><path d="M368.38,196.18c-18.87,0-35.38-1.76-49.09-5.23-8.12-2.06-21.2-3.06-40-3.06-79,0-234.73,17.66-279.32,22.92V80l-1,0V222s260-30,306-19,107,0,107,0-.12-3.69-.67-9.53A365.72,365.72,0,0,1,368.38,196.18Z" transform="translate(5.89 2)" fill="#70452e"/><path d="M206.59,255.58a53.73,53.73,0,0,1-7.35,12.34c-7.74,10.27-19.81,21.83-36.89,35.34-19.59,15.5-24.29,34.8-24.93,47.74H-1v10H145s-6-25,18-43C185.94,300.8,216.18,274.46,206.59,255.58Z" transform="translate(5.89 2)" fill="#70452e"/><path d="M461.69,358.76h0c-5.44,0-12.93-3.5-20.16-6.88-2.23-1-4.54-2.12-6.83-3.12-6-2.6-14.61-3.11-27.5-3.11-2.44,0-5,0-7.62,0s-5.62,0-8.55,0c-16.83,0-36-.68-50.34-5.75-18-6.36-21-16.83-21.66-25.24-2-27.46,6.84-55.15,16.05-75.74-10.51,16.33-28.92,50.41-26,85,4,48,93,29,111,36,15.82,6.15,34,16.93,44.23-1.59A7.48,7.48,0,0,1,461.69,358.76Z" transform="translate(5.89 2)" fill="#70452e"/><path d="M154,676.6c-51.38,4.83-110.11,5.55-140.54,5.55-5.64,0-10.51,0-14.47,0v22.71s234.78,5,244.69-35.76a81.66,81.66,0,0,0,2.1-13.61C240.62,660,221.73,670.22,154,676.6Z" transform="translate(5.89 2)" fill="#70452e"/><path d="M244.49,435.67a28.67,28.67,0,0,0,.75-10.09c-1.07-9.8-7-14.62-11.79-18.49-.88-.72-1.81-1.48-2.67-2.24a6.19,6.19,0,0,0-1.65,2.44C223.78,423.62,241.2,424.78,244.49,435.67Z" transform="translate(5.89 2)" fill="#70452e"/><path d="M455.45,471.43c-1.09,23.47-2.88,46.08-3.79,56.77-16.82,2.81-78.57,12.53-126.55,12.53-42.92,0-53.67-7.88-56.31-11.27-3.54-4.56-7.24-9-10.82-13.36-11.51-13.9-23.38-28.24-26-41.62-2.43,23.87,19.4,44.19,37.08,67,22.13,28.6,181.89,0,181.89,0s3.71-40.08,4.76-76.59Q455.6,468.09,455.45,471.43Z" transform="translate(5.89 2)" fill="#70452e"/><path d="M1469.1,551.05c-3-7.45-9.39-23.59-15.42-40.81-7.34-20.93-10.86-33.94-12.51-41.92-2.73,21,29.36,104.49,29.36,104.49L1671,566.15s-2.52-8.64-6.29-21.13Z" transform="translate(5.89 2)" fill="#70452e"/><path d="M1732.55,714.22c-116.16,0-150.39-8.75-160.46-14-27.35-14.17-32.07-28.65-33.13-39.68-1.54-16,4.65-36.15,12.64-58.91-4.17,2.37-7,5.13-8.26,8.33-18.43,47-27.64,79,23.54,103S1919,721,1919,721V708.88C1890.43,710.38,1809.57,714.22,1732.55,714.22Z" transform="translate(5.89 2)" fill="#70452e"/><path d="M1484.21,714c7.11,1.72,28.12,6.93,49.54,13.53A349.27,349.27,0,0,1,1571,740.93c2.74,1.21,5.07,2.33,7.06,3.37-27.26-15.71-93.58-32-93.58-32s-3.25,9.41-7.15,21.9C1480.16,725.55,1482.74,718.15,1484.21,714Z" transform="translate(5.89 2)" fill="#70452e"/><path d="M1522.08,822.78c-17.08,0-31-.73-41.36-2.16-17.22-2.37-19.88-6.11-20.13-6.53a35.3,35.3,0,0,1-3.24-6.67c-.9,3.76-.24,7.83,4.05,15.5,10.3,18.44,133.6,7.14,133.6,7.14s0-4.08-.11-10.4C1584.24,820.49,1552.26,822.78,1522.08,822.78Z" transform="translate(5.89 2)" fill="#70452e"/><polyline points="1503.57 374.66 1559.77 344.52 1581.12 374.66" fill="#70452e"/><polyline points="1561.55 359.59 1581.12 315.69 1567.95 364.18" fill="#70452e"/><polyline points="1524.58 557.32 1524.58 514.01 1566.58 560.65" fill="#70452e"/><polyline points="1651.06 381.65 1703.89 382 1720.89 402 1848.89 418 1871.32 441.16 1735.89 441 1651.06 427.57" fill="#70452e"/><polyline points="1806.89 418 1842.89 365 1822.63 418" fill="#70452e"/><polyline points="557.58 1024.49 642.99 1035.13 731.04 1068.13 652.92 1070.61 577.44 1038.33" fill="#70452e"/><polyline points="1503.09 824.14 1545.46 780.9 1525.2 829.68" fill="#70452e"/><polyline points="1475.49 955.38 1493.31 992.45 1541.94 1028.45 1477.43 1019.78 1468 1019.78" fill="#70452e"/><polyline points="1562.35 692.38 1637.24 690.73 1760.89 688 1825.02 718 1626.89 723 1568.89 705" fill="#70452e"/><polyline points="1676.89 826.5 1795.89 852 1866.89 888 1719.89 882 1680.34 875" fill="#70452e"/><polyline points="1725.14 971.77 1795.89 951 1744.89 981" fill="#70452e"/><polyline points="1753.03 1070 1848.89 1055 1879.03 1070" fill="#70452e"/><polyline points="331.1 542.74 414.75 476.01 382.6 543.12" fill="#70452e"/><path d="M244,812.09S281.54,785,312.27,785s86.44,24,91.08,38-24.6,16-24.6,16" transform="translate(5.89 2)" fill="#70452e"/><polyline points="299.77 990.3 368.35 977.47 400.65 996.18 356.42 1019.56 315.8 1006.93" fill="#70452e"/><polyline points="77.89 1005 150.89 904 166.89 965" fill="#70452e"/><polyline points="179.44 1070 179.89 1050 226.89 1080" fill="#70452e"/><polyline points="60.53 697.87 135.24 634.29 223.25 669.72" fill="#70452e"/><polyline points="67.89 205.87 140.89 149 226.68 191.97" fill="#70452e"/><polyline points="294.33 47.18 480.4 64.32 404.68 73.56 309.77 69.43" fill="#70452e"/><polyline points="340.89 60 368.89 24 363.89 60" fill="#70452e"/><polyline points="480.4 52.49 488.89 24 494.89 60" fill="#70452e"/><polyline points="774.36 60.37 906.89 24 979.04 60.37 834.89 74" fill="#70452e"/><polyline points="327.89 342 391.89 316 441.89 351 372.89 351" fill="#70452e"/><polyline points="1533.89 218 1766.89 190 1830.89 233 1635.89 233" fill="#70452e"/><polyline points="1329.41 76.76 1534.89 53 1698.9 81.98 1487.89 90 1359.17 91.12" fill="#70452e"/><path d="M470,716l1.29-4.89c-18.08,0-24.53-3.72-26.46-5.33-14.29-11.83-12.66-22.55-12.35-24l5.72-15-16.62.6c-.5,0-51.72-.56-85.36-32.65-11-10.45-16.08-21.65-18.1-31.84-.3,13.7,3.52,31.28,19.88,47.14,33,32,82,32,82,32s-5,16,14,32c14.26,12,53.31,6,71.9,2.24C495.27,716.57,482.08,716,470,716Z" transform="translate(5.89 2)" fill="#70452e"/><polyline points="1730.89 510 1755.89 503 1814.89 540" fill="#70452e"/><polyline points="1634.89 703 1650.89 643 1665.89 703" fill="#70452e"/><polyline points="1730.89 855 1795.89 809 1771.89 855" fill="#70452e"/><polyline points="344.89 807 434.89 796 461.53 845.57 400.65 841" fill="#70452e"/></g><g id="Highlights"><path d="M1912,1037l7,21.39V1028H1766.39Z" transform="translate(5.89 2)" fill="#cf9d61"/><path d="M22.24,770.58c141.63,0,200.78,18,208.39,33.34,3.32,6.7,5,14.81,5.31,23.83.12-11.48-1.67-22-5.94-30.75C209,754-1,761-1,761v9.77C4.94,770.67,12.87,770.58,22.24,770.58Z" transform="translate(5.89 2)" fill="#cf9d61"/><path d="M97.12,1035.7c32.94-.8,73.58-7.7,112.48-7.7,55.65,0,82.87,5.6,87.65,9.38,8.36,2.37,17.82,13,23.82,24.6-2.27-10.51-7.23-23.48-18.07-30-19.19-11.51-219.67-9.22-261.55,9.53C52.2,1038.87,69.6,1036.37,97.12,1035.7Z" transform="translate(5.89 2)" fill="#cf9d61"/><path d="M244.92,898.47c.51-.46,6-4.52,39.64-4.52,25.16,0,58.65,2.26,89.59,6,34,4.15,52.8,8.75,56.42,11.47,5.72,4.31,23.41,26.86,42,55.79,9.14,14.23,22.46,26.11,27.89,36.92.13.27.26.52.39.78-10.61-29.3-57.84-93.4-69.93-102-14.86-10.57-167.21-24.17-181.55-11.33a31.33,31.33,0,0,0-6.86,9.61A19.68,19.68,0,0,1,244.92,898.47Z" transform="translate(5.89 2)" fill="#cf9d61"/><path d="M513.19,757c-7.64-11.49-200.77-48.77-245.47-57.27,22.62,8.44,63.3,25.49,105.46,35.08,96,21.82,124.78,31.66,133.27,35.81-2,6-8,20.21-26.48,49.83-5.24,8.39-10.47,16.4-15,23.12C480.8,822.32,520.13,767.43,513.19,757Z" transform="translate(5.89 2)" fill="#cf9d61"/><path d="M1698,922l-11.88,6.1a7.33,7.33,0,0,0,3.28-.75c5.2-3.49,21.85-9.35,74.95-9.35,57.55,0,128.65,7,154.65,9.79V922S1731,905,1698,922Z" transform="translate(5.89 2)" fill="#cf9d61"/><polygon points="1924.89 783.52 1924.89 758 1720.36 758 1924.89 783.52" fill="#cf9d61"/><path d="M1615.44,901.49c0,3.37,1.1,8.61,2.27,15.55.12-15.58-.38-26.4-1.76-26.59-3-.41-56.46-2.31-97.45-3.73C1561.45,893.14,1603.26,899.46,1615.44,901.49Z" transform="translate(5.89 2)" fill="#cf9d61"/><path d="M577.76,984.51c32.31,0,115.68.12,191.74,1.25,42,.62,76,1.46,101.22,2.49,39,1.61,47.72,3.36,49.5,3.88.63.62,2.74,3.61.64,14.26-1,5.09.86,11.47.42,18.77,6.35-16.37,10.25-32.11,3.82-36C910.53,980.27,574.86,981,574.86,981s-2.49,1.35-6.39,3.53Z" transform="translate(5.89 2)" fill="#cf9d61"/><path d="M1684,0h-1.06c4.84,9.13,11.14,21.45,17.21,34.59,13.18,28.53,17.85,44.74,19.45,53.27A35.18,35.18,0,0,0,1724,87C1751,79,1684,0,1684,0Z" transform="translate(5.89 2)" fill="#cf9d61"/><path d="M1752,481.05c19.87.73,42,2.54,63.81,4.82,42,4.38,82.86,10.49,104.23,13.87V489s-146.75-17.1-199.74-8C1728.56,480.63,1738.94,480.58,1752,481.05Z" transform="translate(5.89 2)" fill="#cf9d61"/><path d="M1156.35-2c-1.28,20.77-4.56,50.55-11.41,71.14C1166,49.48,1167-2,1167-2Z" transform="translate(5.89 2)" fill="#cf9d61"/><path d="M1689.75,113.25c55.94,0,101.8,1,136.31,3.1,56.89,3.39,68.51,8.8,70.59,10.18,3.67,4.59,12,20.63,16.72,73.92,1.1,12.49,1.77,24.54,2.18,34.58l3.45,0s0-96-21-118-379-11-379-11-3.07,4.17-7.82,10C1544.14,115.06,1616.52,113.25,1689.75,113.25Z" transform="translate(5.89 2)" fill="#cf9d61"/><polygon points="1912.89 28 1924.89 65.14 1924.89 16 1772.89 16 1772.89 16.57 1912.89 28" fill="#cf9d61"/><polygon points="625.65 0 621.74 47.18 630.89 0 625.65 0" fill="#cf9d61"/><path d="M1436.36,273.72h198a15,15,0,0,1,1.37,1.88,19,19,0,0,0-5-8.43H1443.61s-4.57-.29-9.41,7.25A5.22,5.22,0,0,1,1436.36,273.72Z" transform="translate(5.89 2)" fill="#cf9d61"/><path d="M1909,301.36l10,99.1V291l-220-9a128.57,128.57,0,0,0-15.11,12.22c.89-.7,1.79-1.41,2.7-2.09Z" transform="translate(5.89 2)" fill="#cf9d61"/><path d="M0,90.39l285.56-8.33c5.53,2.8,22.64,12.82,25.33,30.93,1.18,7.9,6,21.14,25.28,21.14A109.71,109.71,0,0,0,353,132.28c6.1-1,12.41-2,18.34-2,7.37,0,12.79,1.56,17.05,4.91,15.15,11.93,21.46,46.67,23.47,67.81l.12,0s-2-61-27-80-66,12-70-14-32-37-32-37L-1,80V222l1-.11Z" transform="translate(5.89 2)" fill="#cf9d61"/><path d="M274,200" transform="translate(5.89 2)" fill="#cf9d61"/><path d="M107.78,251.37c54.37,0,83.47,2.28,99,4.58A18.15,18.15,0,0,0,205,253c-14-19-206-9-206-9v9.72C19.79,252.89,63.82,251.37,107.78,251.37Z" transform="translate(5.89 2)" fill="#cf9d61"/><path d="M447,240c-51-15-105-11-105-11s-2.77,3.52-6.71,9.61c2.44-.06,5.23-.09,8.34-.09,20.78,0,61.39,1.73,99.92,13.31C485.79,264.52,476,313,462,361.79A38.26,38.26,0,0,0,468,349C477,318,498,255,447,240Z" transform="translate(5.89 2)" fill="#cf9d61"/><path d="M71.92,382.74c41.16,0,70.42,8.34,84.62,24.11,21.9,24.33,25.46,48.59,29.58,76.67,3.26,22.17,6.63,45.09,19.1,69.44q2.91,5.65,5.77,11.2c15.49,30,29.59,57.32,35,82.6-1-33.83-20.55-69.17-41.15-109.84-25.15-49.68-7.62-95.37-46.5-139.09S-1,381-1,381v8.83C12.35,387.34,41.51,382.74,71.92,382.74Z" transform="translate(5.89 2)" fill="#cf9d61"/><path d="M250.44,404.75c14.79-1.93,34.82-2.94,57.94-2.94,29.38,0,62.26,1.61,90.21,4.41,33.25,3.34,46.32,7.07,49.07,8.88.83,1.74,8.64,13.63,6.75,69.38,1.66-33.66,2.55-70.89-3.45-77.19-11.33-11.92-214.27-23-221.83,0-.25.76-.44,1.49-.6,2.19C232.57,408,239.31,406.2,250.44,404.75Z" transform="translate(5.89 2)" fill="#cf9d61"/><path d="M236.51,459.84c-.47.91-.9,1.81-1.29,2.71C235.68,461.64,236.11,460.73,236.51,459.84Z" transform="translate(5.89 2)" fill="#cf9d61"/><path d="M1496.71,459.26c29.37-.21,66.67,1,99.77,3.21,23,1.54,36.12,3.06,42.71,4.14-2.74-7.12-5-11.93-6.27-12.89-6.11-4.55-152.93-2.89-185,8.08C1456.78,460.57,1471.7,459.44,1496.71,459.26Z" transform="translate(5.89 2)" fill="#cf9d61"/><path d="M1647.31,589.85c37.07,1,79.33,4.7,119.69,9.24,66.31,7.46,127.47,17.24,152,21.32V610s-187.43-24.66-297.77-20.39C1629.09,589.52,1637.75,589.59,1647.31,589.85Z" transform="translate(5.89 2)" fill="#cf9d61"/><path d="M1918.44,721l.56,0V700.53Z" transform="translate(5.89 2)" fill="#cf9d61"/><path d="M1527.43,737.44c16,5.07,29.14,9.9,38.94,14.36,16.56,7.52,19.05,11.93,19.33,12.53,2.29,7,5.88,22.55,8.74,38.47-.65-17.5-2.06-38.67-5.13-48.29-5.68-17.84-104.82-42.23-104.82-42.23s-1.62,4.71-4,11.88C1490.44,726.69,1508.79,731.55,1527.43,737.44Z" transform="translate(5.89 2)" fill="#cf9d61"/><polyline points="1481.87 273.1 1497.52 315.69 1489.7 273.1" fill="#cf9d61"/><polyline points="1533.73 739.26 1491.09 780.9 1520.21 735.44" fill="#cf9d61"/><polyline points="1571.06 459.05 1604.09 495.69 1597.05 464.12" fill="#cf9d61"/><polyline points="1656.89 112 1834.89 157 1889.89 119" fill="#cf9d61"/><polyline points="1581.12 273.1 1618.47 290.13 1635.18 273.1" fill="#cf9d61"/><polyline points="320.14 403.83 353.22 456.15 371.04 422 435.33 412.27 356.93 399.41" fill="#cf9d61"/><polyline points="748.25 985.1 932.97 1009.94 928.34 990.78" fill="#cf9d61"/><polyline points="1553.22 893.12 1623.89 932.45 1623.49 906.11 1607.22 897.78" fill="#cf9d61"/><polyline points="1808.45 920.85 1889.89 951 1924.89 930 1866.67 920.85" fill="#cf9d61"/><polyline points="315.63 896.57 364.63 941.21 413.6 898.48" fill="#cf9d61"/><polyline points="58.38 772.87 139.89 822 117.89 773" fill="#cf9d61"/><polyline points="84.7 384.82 128.38 453.48 185.5 451.12 177.13 417.71 122.17 382.71" fill="#cf9d61"/><polyline points="391.89 239 435.89 291 479.42 291.19 470.12 254.98" fill="#cf9d61"/><polyline points="67.89 251 139.89 286 122.89 251" fill="#cf9d61"/><polyline points="175.71 80.13 239.89 132 334.66 132 368.89 132 322.16 127.95 312.54 100.11 299.24 80.13 241.89 80" fill="#cf9d61"/><path d="M451.59,587.83c38.36,0,48.87,2.87,51.51,4C504.58,595,517.9,612.49,517,686c0,3,0,6.14,0,9.44,2.2-30.71,6.32-109.72-9-116.63-16.16-7.3-138.68-2.18-174.93-.48C362.32,580.41,415.62,587.83,451.59,587.83Z" transform="translate(5.89 2)" fill="#cf9d61"/><path d="M1002.79,1015.87c18.9,0,47.9,22.51,69.07,38.94,16,12.4,21.46-.47,26.14-2.81a71,71,0,0,0,7.18-4.27c1.57-1.16,3.63-3,6.48-5.5,12-10.63,24.76-6.53,46.34-9.23,8-1,18.19,0,20,0,5,0,12-4,22.59,2.2,8.92,5.23,14.35,11.58,21.25,16.85a130,130,0,0,0,11.16,8c5.53,2.21,10.12,6.3,27.62-4,27.39-16.18,68.79-40.64,92.14-40.64.55,0,1.08,0,1.6,0-6.74-6.71-13.68-11.55-20.36-12.82-29-5.47-106,11.85-119,13.68s-14,.92-40-2.73-58-3.92-65-.27-76-25.27-99-7a73.08,73.08,0,0,0-9.8,9.75C1001.71,1015.9,1002.23,1015.87,1002.79,1015.87Z" transform="translate(5.89 2)" fill="#cf9d61"/><polyline points="684.75 986.84 716.89 1027 700.82 986.84" fill="#cf9d61"/><polyline points="1097.89 1043 1153.89 1078 1131.89 1033" fill="#cf9d61"/><polyline points="1833.89 486 1851.89 514 1851.89 489" fill="#cf9d61"/><polyline points="1803.89 604 1859.89 643 1903.67 618.97" fill="#cf9d61"/><polyline points="1870.89 771 1866.89 822 1814.89 835 1885.89 832 1917.89 771" fill="#cf9d61"/><polyline points="1830.89 294 1752.89 326 1720.36 295.29" fill="#cf9d61"/></g></svg>