<svg id="TilesActual" xmlns="http://www.w3.org/2000/svg" viewBox="0 0 157 160.03"><g id="TilePlaceholder" opacity="0.2"><path d="M629.72,233.44c4.77-21.47,7.16-16.7,22.66-23.85s65.6,0,65.6,0L746.6,212s21.82-10,31,1.2c10.73,13.12,1.19,60.82,1.19,64.4s3.58,11.93,3.58,11.93,3.21,17.7,1.19,29.81c-2.38,14.31,4.77,25.05-6,37s-58.44,13.11-71.56,4.77-38.16,1.19-38.16,1.19S625,367,627.34,340.78,625,254.91,629.72,233.44Z" transform="translate(-627.24 -206.41)" fill="#fff"/><path d="M783.57,319.31c2-12.11-1.19-29.81-1.19-29.81s-3.58-8.35-3.58-11.93,9.54-51.28-1.19-64.4c-9.19-11.23-31-1.2-31-1.2L718,209.59s-50.09-7.16-65.6,0c-13.19,6.09-16.89,3.55-20.64,15.89l2.06-.71c2.89-1,6.48-2.19,11-4.16,1.23-.53,6.42-2.28,21.84-2.28,21.23,0,46,3.31,46.23,3.35l.4,0,37.09,2.92,3.3-1.43c2.13-.91,9.05-3.31,14.84-3.31.86,0,3.73.07,4.56,1,0,0,3.38,4.33,2.68,22.8a285.92,285.92,0,0,1-3.49,31.7,53.67,53.67,0,0,0-.93,7.57c0,5.12,2.64,12.16,4.6,16.67,1,5.72,2.56,18.53,1.1,26.77-1.24,7.06-.74,13.37-.34,18.43.58,7.24.67,10.36-1.79,13.7a15.36,15.36,0,0,0,2.72-2.29C788.34,344.36,781.19,333.62,783.57,319.31Z" transform="translate(-627.24 -206.41)" fill="#fff"/><polyline points="31.11 9.14 65.69 24.65 96.7 9.14 132.48 38.96 119.36 11.53 145.6 11.53" fill="#fff"/><polyline points="147.99 79.51 142.02 112.91 153.95 135.56" fill="#fff"/><path d="M753.45,354.51c-16.23,0-26.44-2.45-29.07-4-6.77-4-15.3-6-25.36-6-13.86,0-27.32,3.79-32.5,5.44-1.34.08-3.47.18-6,.18-14.39,0-22.41-2.94-24.9-5.46-.46-.47-1.42-1.44-1.12-4.52,1.32-13.39,1-33,.61-53.79-.45-25.23-1-53.83,2-66.25.46-1.89.87-3.47,1.24-4.83-4,2.26-5.91,6-8.61,18.15-4.77,21.47,0,81.1-2.38,107.34s40.55,21.47,40.55,21.47,25-9.54,38.16-1.19,60.83,7.15,71.56-4.77a26.32,26.32,0,0,0,3.16-4.3A135.34,135.34,0,0,1,753.45,354.51Z" transform="translate(-627.24 -206.41)" fill="#fff"/><polyline points="4.87 58.04 23.95 90.24 4.87 118.87" fill="#fff"/></g></svg>