<svg xmlns="http://www.w3.org/2000/svg" xmlns:xlink="http://www.w3.org/1999/xlink" viewBox="0 0 1920 1080"><defs><clipPath id="clip-path" transform="translate(0 0)"><rect y="0.03" width="1920" height="1079.97" fill="none"/></clipPath></defs><g style="isolation:isolate"><g id="Layer_1" data-name="Layer 1"><rect y="0.03" width="1920" height="1079.97" fill="#47251c"/><path d="M1634.06,1076.92s18.22-30.47,63.78-30.47h215.65v30.47Z" transform="translate(0 0)" fill="#170c09"/><path d="M0,775.18s182.24-7.11,203.5,36.58-18.23,131.06-49.61,163.57S0,1062.7,0,1062.7Z" transform="translate(0 0)" fill="#170c09"/><path d="M12.84,1062.7c28.88-21.33,245-24.38,264.9-12.19s19.91,26.41,19.91,26.41H12.84S-16,1084,12.84,1062.7Z" transform="translate(0 0)" fill="#170c09"/><path d="M207.55,958.54c0,16.12,75.24,82.89,111.78,78.29s62.88-29.93,90.83-23,55.89,33.77,68.25,23S422,930.15,406.93,919.4s-169.29-24.56-183.8-11.51S207.55,958.54,207.55,958.54Z" transform="translate(0 0)" fill="#170c09"/><path d="M232.4,711.18c-15.49,20.32-12.79,125-12.79,125L435,867.64S499,784.33,490.2,771.12,232.4,711.18,232.4,711.18Z" transform="translate(0 0)" fill="#170c09"/><path d="M1634.06,985.49c0,19.3,279.43,31.49,279.43,31.49V938.75s-190.34-17.27-223.75,0S1634.06,966.18,1634.06,985.49Z" transform="translate(0 0)" fill="#170c09"/><path d="M1661.39,770.1c-15.18,18.29-14.17,114.81,12.15,125s240,14.22,240,14.22V770.1Z" transform="translate(0 0)" fill="#170c09"/><path d="M1460.47,901.28s-13.57,127.34-8.55,135.46,143.19,19,148.22,14.23,11.55-143.59,6.53-144.27S1460.47,901.28,1460.47,901.28Z" transform="translate(0 0)" fill="#170c09"/><path d="M552.65,998.67s-55,29.92-53,36.05,109.93,32.67,126,32.67H730.27s.67,3.74,15.42,4.46,55,2,55,2l82.45-7.57S922,1016,907.23,1007,552.65,998.67,552.65,998.67Z" transform="translate(0 0)" fill="#170c09"/><path d="M1675.57,2s67.83,80.26,40.49,88.39-411,10.16-456.6-7.11S1228.07,3.66,1246.3,2Z" transform="translate(0 0)" fill="#170c09"/><path d="M1693.79,498.84c12.15-24.38,220.71,0,220.71,0v57.91s-112.38,23.37-162,0S1681.64,523.22,1693.79,498.84Z" transform="translate(0 0)" fill="#170c09"/><path d="M677.31,0S655,40.64,662.13,57.91,831.2,81.28,884.86,73.15,979,77.21,979,77.21L1010.4,64l39.48,13.2s45.23,13.68,72.9,0C1151,63.28,1152.14,0,1152.14,0Z" transform="translate(0 0)" fill="#170c09"/><path d="M1508.52,109.72s-25.31,34.55-43.54,44.71-50.62,26.41-28.35,46.73,113.4,37.59,160,39.62,316.89,0,316.89,0,0-97.53-21.26-119.88S1508.52,109.72,1508.52,109.72Z" transform="translate(0 0)" fill="#170c09"/><polygon points="1759.6 16.25 1759.6 76.2 1913.49 90.42 1913.49 16.25 1759.6 16.25" fill="#170c09"/><path d="M117.44,0s34.42,56.89,84,63S243,50.8,246,53.85s27.34,23.36,66.82,19.3,61.76,10.16,120.48,1c16-2.5,4.05-19.31,35.43,0s121.5-6.1,121.5-6.1L603.41,0Z" transform="translate(0 0)" fill="#170c09"/><path d="M1432.19,273.47s-10.44-.67-16.56,26,.72,61.24,13,74.55,78.87,16,78.87,16l79.23-9.32s5.76-37.94,28.81-65.24,6.12-41.93,6.12-41.93Z" transform="translate(0 0)" fill="#170c09"/><path d="M1690.75,288.53c-48.59,33.53-74.92,104.65-61.75,136.14s97.25,33.29,182.23,29.47c67.84-3.05,102.26-15.24,102.26-15.24V297.68Z" transform="translate(0 0)" fill="#170c09"/><path d="M0,67.05s14.17,17.28,55.68,0S107.32,0,107.32,0H0Z" transform="translate(0 0)" fill="#170c09"/><path d="M0,83.31l257.16-8.13s28.34,11.18,32.39,37.59,45.56-5.08,70.87,14.23,27.34,81.27,27.34,81.27-61.76,11.18-108.33,0S0,227.58,0,227.58Z" transform="translate(0 0)" fill="#170c09"/><path d="M0,249.93s164-10.16,178.19,9.14-18.23,47.75-42.52,66-18.23,43.69-18.23,43.69H0Z" transform="translate(0 0)" fill="#170c09"/><path d="M316.89,234.69s-37.46,47.75-33.41,96.52,94.16,29.46,112.38,36.57,39.48,20.32,48.6-11.18,30.37-95.5-21.27-110.74S316.89,234.69,316.89,234.69Z" transform="translate(0 0)" fill="#170c09"/><path d="M0,389.06s91.56-27.25,130.92,17.16,21.61,90.84,47.08,141.3,49.39,92.86,39.36,134.24S0,718.09,0,718.09Z" transform="translate(0 0)" fill="#170c09"/><path d="M202.62,415.82c7.65-23.4,213.11-12.1,224.59,0s0,136.39,0,136.39-161.75,29-184.15,0-51.37-54.07-30.6-87.16S195,439.22,202.62,415.82Z" transform="translate(0 0)" fill="#170c09"/><path d="M1430.54,474.84c7.37-14.39,186.51-16.93,193.32-11.85s38.55,114.23,38.55,114.23l-203,6.77S1423.17,489.22,1430.54,474.84Z" transform="translate(0 0)" fill="#170c09"/><path d="M1533.16,621.77c18.65-47.75,380.33,0,380.33,0V734.54s-304.68,16.26-356.5-8.12S1514.5,669.52,1533.16,621.77Z" transform="translate(0 0)" fill="#170c09"/><path d="M1579.71,768.59c5.75,18.13,5.75,76.75,5.75,76.75s-124.83,11.48-135.26-7.25.36-16.32,3.24-39.28,20.14-73.13,20.14-73.13S1574,750.46,1579.71,768.59Z" transform="translate(0 0)" fill="#170c09"/><path d="M297.65,590.28s-18.22,39.62,15.19,72.13,83,32.51,83,32.51S390.8,711.18,410,727.43s83,0,83,0,11.14-128-8.1-137.15S297.65,590.28,297.65,590.28Z" transform="translate(0 0)" fill="#170c09"/><path d="M946.62,1078.12s24.3-35.3,47.58-53.84,93.15,10.84,100.23,7.13,39.49-3.42,65.81.29,27.34,4.62,40.5,2.76,91.12-19.45,120.48-13.89S1385,1080,1385,1080Z" transform="translate(0 0)" fill="#170c09"/><path d="M1644,1077s18-49.86,63-49.86h213V1077Z" transform="translate(0 0)" fill="#a56832"/><path d="M0,760.89s210-7,231,35.9-18,128.64-49,160.55S0,1043.1,0,1043.1Z" transform="translate(0 0)" fill="#a56832"/><path d="M38,1043.1c29-20.94,246-23.93,266-12S324,1077,324,1077H38S9,1064,38,1043.1Z" transform="translate(0 0)" fill="#a56832"/><path d="M235,940.87c0,15.82,74.32,81.36,110.41,76.84s62.11-29.38,89.71-22.6,55.21,33.14,67.42,22.6S446.8,913,431.94,902.45s-167.21-24.11-181.55-11.3S235,940.87,235,940.87Z" transform="translate(0 0)" fill="#a56832"/><path d="M259.54,698.07C244.25,718,246.91,820.73,246.91,820.73l212.76,30.91s63.16-81.77,54.52-94.73S259.54,698.07,259.54,698.07Z" transform="translate(0 0)" fill="#a56832"/><path d="M1644,967.32c0,18.94,276,30.91,276,30.91V921.44s-188-17-221,0S1644,948.37,1644,967.32Z" transform="translate(0 0)" fill="#a56832"/><path d="M1671,755.91c-15,18-14,112.68,12,122.65s237,14,237,14V755.91Z" transform="translate(0 0)" fill="#a56832"/><path d="M1472.54,884.67s-13.4,125-8.44,133,141.43,18.61,146.39,14S1621.91,890.65,1617,890,1472.54,884.67,1472.54,884.67Z" transform="translate(0 0)" fill="#a56832"/><path d="M575.86,980.26s-54.29,29.36-52.3,35.38,108.58,52,124.47,52H751.31s.66-16.28,15.23-15.57S820.83,1074,820.83,1074l81.43-7.43s38.4-69.35,23.84-78.2S575.86,980.26,575.86,980.26Z" transform="translate(0 0)" fill="#a56832"/><path d="M1685,0s67,80.47,40,88.62-406,10.19-451-7.13S1243,1.66,1261,0Z" transform="translate(0 0)" fill="#a56832"/><path d="M1703,489.66c11.94-23.94,217,0,217,0V546.5s-110.5,22.93-159.28,0S1691,513.59,1703,489.66Z" transform="translate(0 0)" fill="#a56832"/><path d="M699,0s-22,39.89-15,56.84,167,22.93,220,15,93,4,93,4l31-13,39,13s44.68,13.42,72,0C1166.82,62.14,1168,0,1168,0Z" transform="translate(0 0)" fill="#a56832"/><path d="M1520,107.73s-25,33.9-43,43.87-50,25.93-28,45.87,112,36.9,158,38.9,313,0,313,0,0-95.74-21-117.67S1520,107.73,1520,107.73Z" transform="translate(0 0)" fill="#a56832"/><polygon points="1768 15.98 1768 74.82 1920 88.78 1920 15.98 1768 15.98" fill="#a56832"/><path d="M146,0s34,55.84,83,61.82,41-12,44-9,27,22.94,66,18.95,61,10,119,1c15.81-2.44,4-18.94,35,0s120-6,120-6L626,0Z" transform="translate(0 0)" fill="#a56832"/><path d="M1444.61,268.44s-10.31-.65-16.36,25.49.71,60.11,12.81,73.17,77.9,15.69,77.9,15.69l78.25-9.15s5.7-37.24,28.46-64,6-41.17,6-41.17Z" transform="translate(0 0)" fill="#a56832"/><path d="M1700,283.23c-48,32.91-74,102.72-61,133.63s96.06,32.67,180,28.92c67-3,101-15,101-15V292.21Z" transform="translate(0 0)" fill="#a56832"/><path d="M0,65.84s44,17,85,0S136,0,136,0H0Z" transform="translate(0 0)" fill="#a56832"/><path d="M0,81.8l284-8s28,11,32,36.9,45-5,70,14,27,79.77,27,79.77-61,11-107,0-306,19-306,19Z" transform="translate(0 0)" fill="#a56832"/><path d="M0,245.34s192-10,206,9-18,46.87-42,64.82S146,362,146,362H0Z" transform="translate(0 0)" fill="#a56832"/><path d="M343,230.38s-37,46.87-33,94.74S403,354,421,361s39,19.94,48-11,30-93.74-21-108.7S343,230.38,343,230.38Z" transform="translate(0 0)" fill="#a56832"/><path d="M0,381.9s120.44-26.74,159.31,16.84,21.35,89.16,46.5,138.7,48.79,91.14,38.88,131.76S0,704.86,0,704.86Z" transform="translate(0 0)" fill="#a56832"/><path d="M230.13,408.17c7.56-23,210.5-11.88,221.83,0S452,542,452,542s-159.76,28.51-181.89,0S219.34,489,239.85,456.49,222.58,431.14,230.13,408.17Z" transform="translate(0 0)" fill="#a56832"/><path d="M1443,466.1c7.28-14.12,184.22-16.61,190.94-11.63S1672,566.59,1672,566.59l-200.47,6.64S1435.7,480.21,1443,466.1Z" transform="translate(0 0)" fill="#a56832"/><path d="M1544.34,610.32c18.42-46.87,375.66,0,375.66,0V721s-300.94,16-352.12-8S1525.91,657.19,1544.34,610.32Z" transform="translate(0 0)" fill="#a56832"/><path d="M1590.31,754.43c5.69,17.79,5.69,75.33,5.69,75.33s-123.3,11.27-133.6-7.12.35-16,3.19-38.56,19.9-71.77,19.9-71.77S1584.63,736.63,1590.31,754.43Z" transform="translate(0 0)" fill="#a56832"/><path d="M324,579.4s-18,38.89,15,70.8,82,31.92,82,31.92-5,16,14,31.91,82,0,82,0,11-125.65-8-134.63S324,579.4,324,579.4Z" transform="translate(0 0)" fill="#a56832"/><path d="M966.71,1080s22.29-56.41,45.29-74.61,92,10.64,99,7,39-3.36,65,.28,27,4.54,40,2.72,90-19.09,119-13.64,63,78.25,63,78.25Z" transform="translate(0 0)" fill="#a56832"/><path d="M1660.23,1068.5a167.58,167.58,0,0,1,7-15.83,111.24,111.24,0,0,1,9.24-15.31c-22.82,14.36-32.46,41.14-32.46,41.14h276v-10Z" transform="translate(0 0)" fill="#70452e"/><path d="M177,937.55C153.63,958.45,58.2,992.76,0,1012v32.54s151-54,182-86c26.21-27,58.13-92.69,54.69-138.32C233.38,860.17,204.08,913.27,177,937.55Z" transform="translate(0 0)" fill="#70452e"/><path d="M40.69,1067.5c-2.57-2.94-5.4-7.62-5.57-11-.11-2.13,1.05-7.28,5.56-14.59a19.36,19.36,0,0,0-2.68,1.62c-29,21,0,34,0,34H324a77.41,77.41,0,0,0-.85-10Z" transform="translate(0 0)" fill="#70452e"/><path d="M477.39,1002.23c-10.58-6.14-22.58-13.09-34.67-16.32a42.45,42.45,0,0,0-11.05-1.43c-13.53,0-26.73,6-40.71,12.38-13.2,6-26.86,12.24-42.44,14.36a25.74,25.74,0,0,1-3.36.22c-15.2,0-39.39-12.67-64.71-33.9S242,938.06,240.33,932.76c.31-7.94,2-24.55,6.62-36.77C235.89,911.14,235,942,235,942c0,15.86,74.32,81.58,110.41,77s62.11-29.46,89.71-22.66,55.21,33.23,67.42,22.66c1.15-1,1.59-2.75,1.43-5.1C497.46,1013.86,487.71,1008.21,477.39,1002.23Z" transform="translate(0 0)" fill="#70452e"/><path d="M253.42,808.48c-.09-11.1-.07-30.21.76-50.26,1.35-32.19,4.06-49.87,6.45-59.5l-1.09-.21c-15.29,20-12.63,123-12.63,123l212.76,31s3.23-4.2,8.13-10.84Z" transform="translate(0 0)" fill="#70452e"/><path d="M1802.6,979.56c-107.3-10-138.75-18.95-147.93-23.25,1.58-5.72,5.76-11,12.44-16.79-14.51,8.75-23.11,17.11-23.11,29,0,19,276,31,276,31v-11C1895.14,987,1849.41,983.91,1802.6,979.56Z" transform="translate(0 0)" fill="#70452e"/><path d="M1688.26,868.27c-3.07-1.23-8-8-11.81-23.13-7.39-29.33-6.1-68.7-1.32-88.63H1671c-15,18-14,113,12,123s237,14,237,14V882.93C1830.08,880.67,1706.05,875.33,1688.26,868.27Z" transform="translate(0 0)" fill="#70452e"/><path d="M1603.92,1027.43h0c-17.1,0-49.44-2.18-78.65-5.29-36.74-3.92-52.51-7.49-57.08-9.37-.42-4.72-.7-20.87,3.63-74.55,1.63-20.12,3.43-39.69,4.65-52.46l-3.92-.13S1459.14,1011,1464.1,1019s141.43,18.66,146.39,14c.54-.51,1.09-2.55,1.65-5.78C1610.46,1027.31,1607.87,1027.43,1603.92,1027.43Z" transform="translate(0 0)" fill="#70452e"/><path d="M836.77,1071.69c-10.83-6.16-42.39-23.41-57.54-24.21-.52,0-1,0-1.55,0-7.83,0-12.81,2.88-16,6.53a15.91,15.91,0,0,1,4.84-.46c14.56.71,54.29,22,54.29,22l81.43-7.45s.6-1.09,1.63-3Z" transform="translate(0 0)" fill="#70452e"/><path d="M656.8,1064.86c-4.31-.32-25.45-7.4-64.13-25.17-31.15-14.31-53.21-26.2-57.08-29.69.75-1.32,4.75-6.17,25.73-19.91,1.93-1.27,3.87-2.52,5.75-3.72-15.27,8.63-45,26.1-43.51,30.59,2,6,108.58,52.16,124.47,52.16H751.31a21.88,21.88,0,0,1,.73-4.26Z" transform="translate(0 0)" fill="#70452e"/><path d="M1550,83.5c-142,0-251.11-6.79-271.44-16.88-21.19-10.53-24.54-35-24.65-48.61A87.06,87.06,0,0,1,1255,3.37c-14.42,12.47-20.72,62.14,19,77.16,45,17,424,15,451,7,4.68-1.39,6.53-4.91,6.4-9.78C1705.69,80.78,1638.31,83.5,1550,83.5Z" transform="translate(0 0)" fill="#70452e"/><path d="M1767.7,523.47c-30.35-13.63-54.32-24.4-57.64-33.56a8.44,8.44,0,0,1,.12-5.59c-3.67,1.4-6.16,3.12-7.19,5.2-12,24,9,34,57.73,57s159.28,0,159.28,0V524.23c-16.37,2.79-54.31,8.51-90.64,8.51C1802.15,532.74,1781.4,529.62,1767.7,523.47Z" transform="translate(0 0)" fill="#70452e"/><path d="M1127.55,71.69h0c-19.69,0-38.28-6.56-40-7.17L1043.2,46.16l-32.78,17.06c-8.26-2.55-29.45-8.07-58-8.07a218.53,218.53,0,0,0-40.18,3.72c-15.15,2.84-39.94,4.4-69.78,4.4-33.29,0-68.5-2-96.62-5.38-38.67-4.71-50.16-10.43-53-12.33C691.29,36.64,696.05,17.75,702,1h-3s-22,39.28-15,56S851,79.57,904,71.71s93,3.93,93,3.93l31-12.77,39,12.77s44.68,13.22,72,0a30.69,30.69,0,0,0,9.31-7.15A61.3,61.3,0,0,1,1127.55,71.69Z" transform="translate(0 0)" fill="#70452e"/><path d="M1720.48,226.41h0c-56.19,0-91.79-.36-105.83-1.08-48.45-2.48-138.83-23.58-158.72-44.89-1.74-1.87-4.62-5.41-4.35-8.18.36-3.57,3.82-7.78,8.4-11.89-14.72,9.5-26.77,21.79-11,36.16,22,20,112,37,158,39s313,0,313,0,0-3.8-.17-10C1879.89,225.81,1792.3,226.41,1720.48,226.41Z" transform="translate(0 0)" fill="#70452e"/><polygon points="1778 61.28 1778 14.53 1768 14.53 1768 75.87 1920 90.42 1920 77.03 1778 61.28" fill="#70452e"/><path d="M538.56,68.84h0c-18.07,0-27-3.51-31.34-6.47-12.65-8.64-19.91-12-25.9-12-7.7,0-11.68,5.42-13.59,8-1.41,1.91-1.56,2.11-3.4,2.43A217.31,217.31,0,0,1,427,64.21c-13.78,0-25.32-1.47-36.47-2.89C379.9,60,369.87,58.7,358.6,58.7a138.69,138.69,0,0,0-16,.9,83.32,83.32,0,0,1-9.42.55c-31.52,0-49.88-18.81-50.05-19a10.33,10.33,0,0,0-7.81-3.74c-1.76,0-7.69.62-10.27,8.66l-.1.34c-.44.4-3.79,3.1-15.91,3.1A129.16,129.16,0,0,1,232,48.18C203,44.23,179,18.08,165.7,0H146s34,55,83,60.84S270,49.09,273,52s27,22.57,66,18.64,61,9.81,119,1c15.81-2.4,4-18.64,35,0s120-5.88,120-5.88l1.85-9.37C600.14,60.47,566.45,68.84,538.56,68.84Z" transform="translate(0 0)" fill="#70452e"/><path d="M1632.38,268.35c-.41-.44-.66-.66-.66-.66H1444.61a6.05,6.05,0,0,0-2.59.66Z" transform="translate(0 0)" fill="#70452e"/><path d="M1627.39,297.56c-20,22.65-27.88,52.27-30.28,63.46l-78.74,8.88c-27.12-1-70.43-5.86-79-14.82-6.91-7.2-11.7-21.35-13.25-36.29.77,19.62,6.59,38.76,15,47.84,12.09,13.1,77.9,15.72,77.9,15.72l78.25-9.17s5.7-37.35,28.46-64.21c10.17-12,12.46-21.51,11.88-28.37C1636.56,284.39,1634,290.11,1627.39,297.56Z" transform="translate(0 0)" fill="#70452e"/><path d="M1832.29,435.25c-23,1.14-42.84,1.7-60.57,1.7h0c-97.71,0-119.19-18.19-123.3-29-5.63-14.88-2.41-42.3,8.21-69.86a203.2,203.2,0,0,1,11.48-24.67c-26.75,35-38.83,80-29.11,103.13,13,31,96.06,32.76,180,29,67-3,101-15,101-15v-7.19C1902.75,427.61,1873.36,433.22,1832.29,435.25Z" transform="translate(0 0)" fill="#70452e"/><path d="M82.06,55c-14.22,5.35-30.24,8.07-47.63,8.07h0A186.78,186.78,0,0,1,0,59.75v5.78s44,17,85,0S136,1,136,1C128.89,17.8,113.07,43.35,82.06,55Z" transform="translate(0 0)" fill="#70452e"/><path d="M343.7,119.78c5.39,0,11.12-.94,17.18-1.93l5.25-.83c-8.86-.37-18,1.44-26.06,2.59C341.22,119.72,342.43,119.78,343.7,119.78Z" transform="translate(0 0)" fill="#70452e"/><path d="M369.38,196.7c-18.87,0-35.38-1.75-49.09-5.22-8.12-2.06-21.2-3.06-40-3.06-79,0-234.73,17.66-279.32,22.91V80.5l-1,0v142s260-30,306-19,107,0,107,0-.12-3.69-.67-9.53A366,366,0,0,1,369.38,196.7Z" transform="translate(0 0)" fill="#70452e"/><path d="M207.59,257.1a53.56,53.56,0,0,1-7.35,12.35c-7.74,10.26-19.81,21.82-36.89,35.34-19.59,15.5-24.29,34.79-24.93,47.73H0v10H146s-6-25,18-43C186.94,302.32,217.18,276,207.59,257.1Z" transform="translate(0 0)" fill="#70452e"/><path d="M462.69,359.28h0c-5.44,0-12.93-3.5-20.16-6.88-2.23-1-4.54-2.12-6.83-3.11-6-2.61-14.61-3.12-27.5-3.12-2.44,0-5,0-7.62,0s-5.62,0-8.55,0c-16.83,0-36-.69-50.34-5.76-18-6.35-21-16.82-21.66-25.24-2-27.46,6.84-55.14,16.05-75.73-10.51,16.33-28.92,50.41-26,85,4,48,93,29,111,36,15.82,6.15,34,16.94,44.23-1.59A7.23,7.23,0,0,1,462.69,359.28Z" transform="translate(0 0)" fill="#70452e"/><path d="M155,677.11c-51.38,4.83-110.11,5.56-140.54,5.56-5.64,0-10.51,0-14.47-.06v22.71s234.78,5,244.69-35.76a81.5,81.5,0,0,0,2.1-13.61C241.62,660.52,222.73,670.74,155,677.11Z" transform="translate(0 0)" fill="#70452e"/><path d="M245.49,436.2a28.7,28.7,0,0,0,.75-10.09c-1.07-9.81-7-14.63-11.79-18.5-.88-.72-1.81-1.48-2.67-2.24a6.19,6.19,0,0,0-1.65,2.44C224.78,424.14,242.2,425.3,245.49,436.2Z" transform="translate(0 0)" fill="#70452e"/><path d="M456.45,472c-1.09,23.47-2.88,46.08-3.79,56.77-16.82,2.81-78.57,12.53-126.55,12.53-42.92,0-53.67-7.88-56.31-11.27-3.54-4.56-7.24-9-10.82-13.36-11.51-13.91-23.38-28.24-26-41.62-2.43,23.87,19.4,44.19,37.08,67,22.13,28.59,181.89,0,181.89,0s3.71-40.08,4.76-76.59C456.64,467.56,456.55,469.71,456.45,472Z" transform="translate(0 0)" fill="#70452e"/><path d="M1470.1,551.56c-3-7.44-9.39-23.59-15.42-40.81-7.34-20.92-10.86-33.93-12.51-41.91-2.73,21,29.36,104.49,29.36,104.49L1672,566.67s-2.52-8.64-6.29-21.13Z" transform="translate(0 0)" fill="#70452e"/><path d="M1733.55,714.74c-116.16,0-150.39-8.75-160.46-14C1545.74,686.6,1541,672.13,1540,661.1c-1.54-16,4.65-36.15,12.64-58.92-4.17,2.37-7,5.14-8.26,8.34-18.43,47-27.64,79,23.54,103s352.12,8,352.12,8V709.4C1891.43,710.89,1810.57,714.74,1733.55,714.74Z" transform="translate(0 0)" fill="#70452e"/><path d="M1485.21,714.52c7.11,1.72,28.12,6.93,49.54,13.53A351.5,351.5,0,0,1,1572,741.44c2.74,1.21,5.07,2.33,7.06,3.37-27.26-15.7-93.58-32-93.58-32s-3.25,9.42-7.15,21.9C1481.16,726.06,1483.74,718.66,1485.21,714.52Z" transform="translate(0 0)" fill="#70452e"/><path d="M1523.08,823.29c-17.08,0-31-.73-41.36-2.16-17.22-2.37-19.88-6.11-20.13-6.52a35,35,0,0,1-3.24-6.68c-.9,3.76-.24,7.83,4.05,15.5,10.3,18.44,133.6,7.14,133.6,7.14s0-4.08-.11-10.4C1585.24,821,1553.26,823.29,1523.08,823.29Z" transform="translate(0 0)" fill="#70452e"/><polyline points="1498.68 373.18 1554.88 343.04 1576.23 373.18" fill="#70452e"/><polyline points="1556.66 358.11 1576.23 314.21 1563.07 362.7" fill="#70452e"/><polyline points="1519.69 555.84 1519.69 512.53 1561.69 559.17" fill="#70452e"/><polyline points="1646.17 380.17 1699 380.52 1716 400.52 1844 416.52 1866.43 439.68 1731 439.52 1646.17 426.09" fill="#70452e"/><polyline points="1802 416.52 1838 363.52 1817.74 416.52" fill="#70452e"/><polyline points="552.69 1022.99 638.1 1033.64 726.15 1066.63 648.03 1069.12 572.55 1036.83" fill="#70452e"/><polyline points="1498.2 822.65 1540.57 779.41 1520.32 828.19" fill="#70452e"/><polyline points="1470.6 953.88 1488.42 990.96 1537.05 1026.96 1472.54 1018.29 1463.11 1018.29" fill="#70452e"/><polyline points="1557.46 690.89 1632.35 689.24 1756 686.51 1820.13 716.51 1622 721.51 1564 703.51" fill="#70452e"/><polyline points="1672 825.01 1791 850.51 1862 886.51 1715 880.51 1675.45 873.51" fill="#70452e"/><polyline points="1720.26 970.28 1791 949.51 1740 979.51" fill="#70452e"/><polyline points="1748.14 1068.5 1844 1053.51 1874.14 1068.5" fill="#70452e"/><polyline points="326.21 541.25 409.86 474.53 377.71 541.64" fill="#70452e"/><path d="M245,812.6s37.57-27.09,68.3-27.09,86.44,24,91.08,38-24.6,16-24.6,16" transform="translate(0 0)" fill="#70452e"/><polyline points="294.88 988.81 363.46 975.98 395.76 994.69 351.53 1018.06 310.91 1005.44" fill="#70452e"/><polyline points="73 1003.51 146 902.51 162 963.51" fill="#70452e"/><polyline points="174.56 1067.5 175 1047.51 222 1077.5" fill="#70452e"/><polyline points="55.65 696.38 130.35 632.8 218.36 668.24" fill="#70452e"/><polyline points="63 204.39 136 147.53 221.79 190.5" fill="#70452e"/><polyline points="289.44 45.71 475.51 62.85 399.79 72.09 304.88 67.96" fill="#70452e"/><polyline points="336 58.53 364 22.53 359 58.53" fill="#70452e"/><polyline points="475.51 51.02 484 22.53 490 58.53" fill="#70452e"/><polyline points="769.47 59.9 902 23.53 974.15 59.9 830 73.53" fill="#70452e"/><polyline points="323 340.52 387 314.52 437 349.52 368 349.52" fill="#70452e"/><polyline points="1529 216.53 1762 188.53 1826 231.53 1631 231.53" fill="#70452e"/><polyline points="1324.53 75.29 1530 51.53 1694.02 80.51 1483 88.53 1354.28 89.65" fill="#70452e"/><path d="M471,716.51l1.29-4.89c-18.08,0-24.53-3.72-26.46-5.32-14.29-11.84-12.66-22.56-12.35-24l5.72-15-16.62.59c-.5,0-51.72-.56-85.36-32.65-11-10.45-16.08-21.64-18.1-31.83-.3,13.7,3.52,31.28,19.88,47.14,33,32,82,32,82,32s-5,16,14,32c14.26,12,53.31,6,71.9,2.25C496.27,717.08,483.08,716.51,471,716.51Z" transform="translate(0 0)" fill="#70452e"/><polyline points="1726 508.52 1751 501.52 1810 538.52" fill="#70452e"/><polyline points="1630 701.51 1646 641.51 1661 701.51" fill="#70452e"/><polyline points="1726 853.51 1791 807.51 1767 853.51" fill="#70452e"/><polyline points="340 805.51 430 794.51 456.64 844.08 395.76 839.51" fill="#70452e"/><path d="M1913,1038.44l7,21.42v-30.44H1767.39Z" transform="translate(0 0)" fill="#cf9d61"/><path d="M23.24,770.53c141.63,0,200.78,18,208.39,33.4,3.32,6.71,5,14.84,5.31,23.87.12-11.5-1.67-22-5.94-30.8C210,753.92,0,760.93,0,760.93v9.79C5.94,770.62,13.87,770.53,23.24,770.53Z" transform="translate(0 0)" fill="#cf9d61"/><path d="M98.12,1035.13c32.94-.8,73.58-7.71,112.48-7.71,55.65,0,82.87,5.61,87.65,9.39,8.36,2.38,17.82,13,23.82,24.65-2.27-10.53-7.23-23.52-18.07-30-19.19-11.54-219.67-9.24-261.55,9.54C53.2,1038.31,70.6,1035.81,98.12,1035.13Z" transform="translate(0 0)" fill="#cf9d61"/><path d="M245.92,899.65c.51-.46,6-4.52,39.64-4.52,25.16,0,58.65,2.26,89.59,6,34,4.16,52.8,8.77,56.42,11.5,5.72,4.31,23.41,26.9,42,55.89,9.14,14.26,22.46,26.15,27.89,37,.13.27.26.51.39.78C491.26,977,444,912.76,431.94,904.14c-14.86-10.59-167.21-24.22-181.55-11.35a31.3,31.3,0,0,0-6.86,9.63A19.78,19.78,0,0,1,245.92,899.65Z" transform="translate(0 0)" fill="#cf9d61"/><path d="M514.19,757.92c-7.64-11.51-200.77-48.86-245.47-57.37,22.62,8.46,63.3,25.54,105.46,35.14,96,21.86,124.78,31.72,133.27,35.88-2,6-8,20.24-26.48,49.92-5.24,8.41-10.47,16.43-15,23.17C481.8,823.36,521.13,768.38,514.19,757.92Z" transform="translate(0 0)" fill="#cf9d61"/><path d="M1699,923.23l-11.88,6.1a7.48,7.48,0,0,0,3.28-.74c5.2-3.5,21.85-9.37,74.95-9.37,57.55,0,128.65,7,154.65,9.8v-5.79S1732,906.19,1699,923.23Z" transform="translate(0 0)" fill="#cf9d61"/><polygon points="1920 782.49 1920 756.92 1715.47 756.92 1920 782.49" fill="#cf9d61"/><path d="M1616.44,902.68c0,3.38,1.1,8.63,2.27,15.58.12-15.62-.38-26.45-1.76-26.64-3-.41-56.46-2.32-97.45-3.74C1562.45,894.31,1604.26,900.65,1616.44,902.68Z" transform="translate(0 0)" fill="#cf9d61"/><path d="M578.76,985.85c32.31,0,115.68.12,191.74,1.25,42,.62,76,1.46,101.22,2.5,39,1.61,47.72,3.36,49.5,3.88.63.63,2.74,3.62.64,14.29-1,5.1.86,11.49.42,18.8,6.35-16.39,10.25-32.16,3.82-36.09-14.57-8.88-350.24-8.17-350.24-8.17s-2.49,1.36-6.39,3.54Z" transform="translate(0 0)" fill="#cf9d61"/><path d="M1685,0h-1.06c4.84,9.1,11.14,21.37,17.21,34.46,13.18,28.43,17.85,44.58,19.45,53.07a33.43,33.43,0,0,0,4.4-.86C1752,78.73,1685,0,1685,0Z" transform="translate(0 0)" fill="#cf9d61"/><path d="M1752.8,481.47c19.77.73,41.79,2.55,63.49,4.83,41.8,4.39,82.45,10.51,103.71,13.89V489.43s-146-17.13-198.74-8C1729.52,481.05,1739.85,481,1752.8,481.47Z" transform="translate(0 0)" fill="#cf9d61"/><path d="M1157.35,0c-1.28,20.08-4.56,48.89-11.41,68.8C1167,49.79,1168,0,1168,0Z" transform="translate(0 0)" fill="#cf9d61"/><path d="M1690.75,113c55.94,0,101.8,1,136.31,3.1,56.89,3.4,68.51,8.82,70.59,10.2,3.67,4.6,12,20.67,16.72,74.06,1.1,12.51,1.77,24.58,2.18,34.63l3.45,0s0-96.18-21-118.22-379-11-379-11-3.07,4.18-7.82,10C1545.14,114.81,1617.52,113,1690.75,113Z" transform="translate(0 0)" fill="#cf9d61"/><polygon points="1908 25.59 1920 62.8 1920 13.56 1768 13.56 1768 14.14 1908 25.59" fill="#cf9d61"/><polygon points="620.76 0 616.85 44.8 626 0 620.76 0" fill="#cf9d61"/><path d="M1437.36,273.76h198a15,15,0,0,1,1.37,1.88,19,19,0,0,0-5-8.44H1444.61s-4.57-.29-9.41,7.26A5.06,5.06,0,0,1,1437.36,273.76Z" transform="translate(0 0)" fill="#cf9d61"/><path d="M1910,301.45l10,99.28V291.07l-220-9a128.83,128.83,0,0,0-15.11,12.25c.89-.71,1.79-1.42,2.7-2.1Z" transform="translate(0 0)" fill="#cf9d61"/><path d="M1,90.09l285.56-8.34c5.53,2.8,22.64,12.84,25.33,31,1.18,7.91,6,21.17,25.28,21.17A109.71,109.71,0,0,0,354,132.06c6.1-1,12.41-2,18.34-2,7.37,0,12.79,1.57,17.05,4.93,15.15,11.94,21.46,46.75,23.47,67.93l.12,0s-2-61.11-27-80.15-66,12-70-14-32-37.07-32-37.07l-284,8V221.94l1-.11Z" transform="translate(0 0)" fill="#cf9d61"/><path d="M275,199.91" transform="translate(0 0)" fill="#cf9d61"/><path d="M108.78,251.37c54.37,0,83.47,2.29,99,4.59a17.81,17.81,0,0,0-1.77-3c-14-19-206-9-206-9v9.74C20.79,252.89,64.82,251.37,108.78,251.37Z" transform="translate(0 0)" fill="#cf9d61"/><path d="M448,240c-51-15-105-11-105-11s-2.77,3.52-6.71,9.62c2.44-.05,5.23-.09,8.34-.09,20.78,0,61.39,1.73,99.92,13.34C486.79,264.55,477,313.09,463,362a38.45,38.45,0,0,0,6-12.82C478,318.12,499,255,448,240Z" transform="translate(0 0)" fill="#cf9d61"/><path d="M72.92,383c41.16,0,70.42,8.35,84.62,24.16,21.9,24.37,25.46,48.67,29.58,76.8,3.26,22.21,6.63,45.17,19.1,69.57L212,564.73c15.49,30.06,29.59,57.43,35,82.75-1-33.89-20.55-69.3-41.15-110-25.15-49.77-7.62-95.55-46.5-139.34S0,381.18,0,381.18V390C13.35,387.58,42.51,383,72.92,383Z" transform="translate(0 0)" fill="#cf9d61"/><path d="M251.44,405c14.79-1.93,34.82-2.95,57.94-2.95,29.38,0,62.26,1.61,90.21,4.43,33.25,3.34,46.32,7.08,49.07,8.89.83,1.74,8.64,13.65,6.75,69.5,1.66-33.71,2.55-71-3.45-77.33-11.33-11.94-214.27-23.08-221.83,0-.25.76-.44,1.49-.6,2.19C233.57,408.25,240.31,406.48,251.44,405Z" transform="translate(0 0)" fill="#cf9d61"/><path d="M237.51,460.22c-.47.91-.9,1.82-1.29,2.71C236.68,462,237.11,461.11,237.51,460.22Z" transform="translate(0 0)" fill="#cf9d61"/><path d="M1497.71,459.64c29.37-.21,66.67,1,99.77,3.21,23,1.55,36.12,3.07,42.71,4.15-2.74-7.13-5-11.95-6.27-12.92-6.11-4.55-152.93-2.89-185,8.11C1457.78,461,1472.7,459.82,1497.71,459.64Z" transform="translate(0 0)" fill="#cf9d61"/><path d="M1648.31,590.47c37.07,1,79.33,4.71,119.69,9.26,66.31,7.47,127.47,17.26,152,21.36V610.65s-187.43-24.7-297.77-20.42C1630.09,590.14,1638.75,590.2,1648.31,590.47Z" transform="translate(0 0)" fill="#cf9d61"/><path d="M1919.44,721.89l.56,0V701.35Z" transform="translate(0 0)" fill="#cf9d61"/><path d="M1528.43,738.33c16,5.08,29.14,9.92,38.94,14.38,16.56,7.53,19.05,11.95,19.33,12.55,2.29,7.07,5.88,22.6,8.74,38.54-.65-17.52-2.06-38.74-5.13-48.37-5.68-17.88-104.82-42.31-104.82-42.31s-1.62,4.72-4,11.9C1491.44,727.55,1509.79,732.42,1528.43,738.33Z" transform="translate(0 0)" fill="#cf9d61"/><polyline points="1476.98 271.13 1492.63 313.8 1484.81 271.13" fill="#cf9d61"/><polyline points="1528.84 738.15 1486.2 779.86 1515.32 734.32" fill="#cf9d61"/><polyline points="1566.17 457.42 1599.2 494.13 1592.16 462.51" fill="#cf9d61"/><polyline points="1652 109.74 1830 154.82 1885 116.75" fill="#cf9d61"/><polyline points="1576.23 271.13 1613.58 288.2 1630.3 271.13" fill="#cf9d61"/><polyline points="315.25 402.1 348.33 454.52 366.15 420.3 430.44 410.56 352.04 397.68" fill="#cf9d61"/><polyline points="743.37 984.44 928.08 1009.32 923.45 990.13" fill="#cf9d61"/><polyline points="1548.33 892.29 1619 931.69 1618.6 905.3 1602.33 896.96" fill="#cf9d61"/><polyline points="1803.56 920.07 1885 950.27 1920 929.24 1861.78 920.07" fill="#cf9d61"/><polyline points="310.74 895.75 359.75 940.47 408.71 897.65" fill="#cf9d61"/><polyline points="53.49 770.82 135 820.04 113 770.95" fill="#cf9d61"/><polyline points="79.82 383.06 123.49 451.85 180.61 449.48 172.25 416.01 117.28 380.94" fill="#cf9d61"/><polyline points="387 236.97 431 289.07 474.53 289.25 465.23 252.98" fill="#cf9d61"/><polyline points="63 248.99 135 284.06 118 248.99" fill="#cf9d61"/><polyline points="170.82 77.81 235 129.78 329.77 129.78 364 129.78 317.27 125.71 307.65 97.83 294.35 77.81 237 77.68" fill="#cf9d61"/><path d="M452.59,588.44c38.36,0,48.87,2.88,51.51,4,1.48,3.2,14.8,20.7,13.9,94.34,0,3,0,6.16,0,9.46,2.2-30.77,6.32-109.92-9-116.84-16.16-7.31-138.68-2.18-174.93-.49C363.32,581,416.62,588.44,452.59,588.44Z" transform="translate(0 0)" fill="#cf9d61"/><path d="M1003.79,1017.27c18.9,0,47.9,22.55,69.07,39,16,12.43,21.46-.47,26.14-2.82a71,71,0,0,0,7.18-4.27c1.57-1.17,3.63-3,6.48-5.52,12-10.65,24.76-6.54,46.34-9.24,8-1,18.19,0,20,0,5,0,12-4,22.59,2.21,8.92,5.23,14.35,11.6,21.25,16.88a133.65,133.65,0,0,0,11.16,8c5.53,2.21,10.12,6.31,27.62-4.06,27.39-16.21,68.79-40.72,92.14-40.72.55,0,1.08,0,1.6,0-6.74-6.72-13.68-11.58-20.36-12.84-29-5.49-106,11.86-119,13.69s-14,.93-40-2.72-58-3.94-65-.28-76-25.32-99-7a72.71,72.71,0,0,0-9.8,9.77C1002.71,1017.29,1003.23,1017.27,1003.79,1017.27Z" transform="translate(0 0)" fill="#cf9d61"/><polyline points="679.86 986.17 712 1026.41 695.93 986.17" fill="#cf9d61"/><polyline points="1093 1042.44 1149 1077.51 1127 1032.42" fill="#cf9d61"/><polyline points="1829 484.42 1847 512.48 1847 487.43" fill="#cf9d61"/><polyline points="1799 602.64 1855 641.71 1898.79 617.64" fill="#cf9d61"/><polyline points="1866 769.95 1862 821.04 1810 834.06 1881 831.06 1913 769.95" fill="#cf9d61"/><polyline points="1826 292.07 1748 324.13 1715.47 293.36" fill="#cf9d61"/><g opacity="0.92" style="mix-blend-mode:multiply"><path d="M1919,1V1079H1V1H1919m1-1H0V1080H1920V0Z" transform="translate(0 0)"/></g></g></g></svg>