<svg xmlns="http://www.w3.org/2000/svg" viewBox="0 0 892.31 1847.68"><g id="Layer_8" data-name="Layer 8"><path id="Shade" d="M1368,607c3-32-11-103-11-103l8-123s-7-83,0-105,0-83-21-119-93-40-121-33-95,33-109,26-93,22-121,0-73-26-73-26-103,20-119,11-96,4-96,4-43-15-63-15-71,8-77,11-38,39-50,72-8,43-10,76,24,153,24,153l-3,125-4,187s0,95-7,124,2,78,25,96,126,22,126,22l112-14,135,9s144-9,169,1,113-25,132-10,130,15,145-8-1-134-1-134,17-94,19-114S1365,639,1368,607Zm-59,289c-16,28-43,21-67,29s-96-5-96-5-77,8-88,4-100-4-100-4-92,9-109,4-54,10-63,10-73-26-104-14-76,12-97-14-5-115-11-135,0-72,0-72l2-153s-13-50-3-83,5-111,5-111-10-48-3-75-11-58,0-70,33-5,70-7,258-22,270-12,191,1,191,1,74-3,125,0,83,21,73,48,13,85,0,105,1,79-4,103,10,76,6,96-6,85-6,111,7,106,7,106-12,44-7,81S1325,868,1309,896Z" transform="translate(-504.89 857.68)" fill="#170c09" opacity="0.3"/><path d="M1388,587c3-32-11-103-11-103l8-123s-7-83,0-105,0-83-21-119-93-40-121-33-95,33-109,26-93,22-121,0-73-26-73-26-103,20-119,11-96,4-96,4-43-15-63-15-71,8-77,11-38,39-50,72-8,43-10,76,24,153,24,153l-3,125-4,187s0,95-7,124,2,78,25,96,126,22,126,22l112-14,135,9s144-9,169,1,113-25,132-10,130,15,145-8-1-134-1-134,17-94,19-114S1385,619,1388,587Zm-59,289c-16,28-43,21-67,29s-96-5-96-5-77,8-88,4-100-4-100-4-92,9-109,4-54,10-63,10-73-26-104-14-76,12-97-14-5-115-11-135,0-72,0-72l2-153s-13-50-3-83,5-111,5-111-10-48-3-75-11-58,0-70,33-5,70-7,258-22,270-12,191,1,191,1,74-3,125,0,83,21,73,48,13,85,0,105,1,79-4,103,10,76,6,96-6,85-6,111,7,106,7,106-12,44-7,81S1345,848,1329,876Z" transform="translate(-504.89 857.68)" fill="#a56832"/><path d="M629,124l24-3,21,27-3-27a65.4,65.4,0,0,0,18,3h26l50,15,31-17s0,7,14,3,9-5,21-3,24,34,24,34l-2-33,23-4,21-4s30-9,37-7,48,29,48,29l33-2s14,6,26,6,52-4,52-4l24,19-10-21s11-7,21-3,103-4,103-4l44-26s38,4,47,17,35,21,42,38,0,22,0,22l-19,21,42.57,29c-.73-27.89-8.59-66.3-23.57-92-21-36-93-40-121-33s-95,33-109,26-93,22-121,0-73-26-73-26-103,20-119,11-96,4-96,4-43-15-63-15-71,8-77,11c-2.59,1.29-10,8.74-18.6,19.43,5.77.35,13.14.57,22.6.57C634,135,629,124,629,124Z" transform="translate(-504.89 857.68)" fill="#cf9d61"/><path d="M798,918a27.55,27.55,0,0,1,6.52-4.14c-13-2.05-72.87-25.34-102.52-13.86-31,12-76,12-97-14s-5-115-11-135,0-72,0-72l2-153s-13-50-3-83,5-111,5-111-10-48-3-75c4.08-15.76-.34-32.87-2.55-46.78-.81,8.74-3,19.3-8.45,28.78-12,21,0,82,0,82l9,36-31,25,27-7s7,31,0,57-5,78-5,78,10-1,5,31-12,91-12,91l8,73a178.89,178.89,0,0,1,4,67c-5,36-18,102,0,125s101,35,101,35l36-26,62,8,16,31Z" transform="translate(-504.89 857.68)" fill="#cf9d61"/><path d="M1329,876c-16,28-43,21-67,29s-96-5-96-5-77,8-88,4-100-4-100-4-92,9-109,4c-11.93-3.51-33.7,2.83-48.74,6.92A35.14,35.14,0,0,1,832,914a44.69,44.69,0,0,0,37,0l111,6,96-6s57-7,90-6,135,6,135,6" transform="translate(-504.89 857.68)" fill="#cf9d61"/><path d="M592.35,191.7v0h0Z" transform="translate(-504.89 857.68)" fill="#bfa179"/><path d="M1386,670c5.43,2.47,8.36,4.15,9.75,6-3.1-27-9.94-65.73-7.75-89,3-32-11-103-11-103l8-123s-7-83,0-105c3-9.49,3.43-26.23,1.24-45.09L1371,209l5,99-35,22,35-11s7,51-4,81-12,112-12,112l18,57S1364,660,1386,670Z" transform="translate(-504.89 857.68)" fill="#cf9d61"/><path d="M1396.44,682.58c-1.32,6.66-5.57,18.43-3.46,45,2-12.2,3.5-22.36,4-27.54C1397.42,695.79,1397.13,689.77,1396.44,682.58Z" transform="translate(-504.89 857.68)" fill="#bf8136"/><path d="M604.25,181.44c12.52-3.72,32.15.11,60.75-1.44,37-2,258-22,270-12,6.81,5.68,67.42,5.23,118.57,3.78h0C1031.14,158.57,1003,171,1003,171l19-20-35,20-55-12-61,6s-72-2-95,3-37-3-37-3l26-14-41,14-55,11-36-6S615.49,172.83,604.25,181.44Z" transform="translate(-504.89 857.68)" fill="#70452e"/><path d="M1319.33,784.94v-.06s0-.07,0-.1A.81.81,0,0,0,1319.33,784.94Z" transform="translate(-504.89 857.68)" fill="#70452e"/><path d="M1082,162a23.8,23.8,0,0,1-5,9c28-1,49-2,49-2s74-3,125,0,83,21,73,48,13,85,0,105,1,79-4,103,10,76,6,96-6,85-6,111,7,106,7,106a274.35,274.35,0,0,0-7.38,43.24C1322.78,757.92,1351,723,1351,723s-28-38-20-67,0-165,0-165l18-36s-6-43-19-57-6-26-6-26l26,16-26-32,7-34s4-35,0-46,4-25,4-25l24,16-24-32-11-47-62-34,10-28-25,28s-68,21-95,11S1082,162,1082,162Z" transform="translate(-504.89 857.68)" fill="#70452e"/><path d="M546,541l-3,141.25L555,657s-16-68,0-98,0-49,0-49l17,17-24.64-42.52S573,434,557,397s-10-61-10-61l10-46s-28.68-58.88-17.18-114.34c-1.82,3.79-3.45,7.58-4.82,11.34-12,33-8,43-10,76s24,153,24,153Z" transform="translate(-504.89 857.68)" fill="#70452e"/><path d="M1378.07,949.24C1351.38,955.06,1316,934,1316,934l-51,20s0,7-22-7-46-12-63,3-58,15-58,15l-30-5-82-2,44-32-67,33s-157-12-173-7-47-3-66,4-54,9-54,9V945l-13,20-78-31s-53-9-60-22,16-80,16-80-14-60-8-71-5-63-5-63l35,36-38-51.75L542,728s0,95-7,124,2,78,25,96,126,22,126,22l112-14,135,9s144-9,169,1,113-25,132-10c14.24,11.24,80.11,14.06,118.56,5.09l24.34-10.6A16.87,16.87,0,0,0,1378.07,949.24Z" transform="translate(-504.89 857.68)" fill="#70452e"/><polyline points="719.11 1802.68 746.11 1783.68 732.11 1804.68" fill="#70452e"/><path d="M1389.43,748.9C1384.1,780.26,1378,814,1378,814s13,90,4.6,124.7l9.4-4.7-2.57-185.1Z" transform="translate(-504.89 857.68)" fill="#cf9d61"/></g><g id="Tiles" opacity="0.1"><rect x="135.11" y="1077.68" width="130" height="130" rx="12" fill="#fff" opacity="0.5"/><rect x="133.11" y="1247.68" width="130" height="130" rx="12" fill="#fff" opacity="0.5"/><rect x="305.11" y="1247.68" width="130" height="130" rx="12" fill="#fff" opacity="0.5"/><rect x="305.11" y="1077.68" width="130" height="130" rx="12" fill="#fff" opacity="0.5"/><rect x="475.11" y="1077.68" width="130" height="130" rx="12" fill="#fff" opacity="0.5"/><rect x="475.11" y="1247.68" width="130" height="130" rx="12" fill="#fff" opacity="0.5"/><rect x="645.11" y="1247.68" width="130" height="130" rx="12" fill="#fff" opacity="0.5"/><rect x="645.11" y="1077.68" width="130" height="130" rx="12" fill="#fff" opacity="0.5"/><rect x="135.11" y="1417.68" width="130" height="130" rx="12" fill="#fff" opacity="0.5"/><rect x="133.11" y="1587.68" width="130" height="130" rx="12" fill="#fff" opacity="0.5"/><rect x="305.11" y="1587.68" width="130" height="130" rx="12" fill="#fff" opacity="0.5"/><rect x="305.11" y="1417.68" width="130" height="130" rx="12" fill="#fff" opacity="0.5"/><rect x="475.11" y="1417.68" width="130" height="130" rx="12" fill="#fff" opacity="0.5"/><rect x="475.11" y="1587.68" width="130" height="130" rx="12" fill="#fff" opacity="0.5"/><rect x="645.11" y="1587.68" width="130" height="130" rx="12" fill="#fff" opacity="0.5"/><rect x="645.11" y="1417.68" width="130" height="130" rx="12" fill="#fff" opacity="0.5"/><path d="M934.78-857.68c-12.7.57-23.2,9.46-29,20.3-7.37,13.71-6.93,30-5.49,45,1.62,17,3.64,34,5.48,50.92q2.82,26,5.63,52t5.63,52l2.79,25.7c.84,7.76,1.53,15.56,2.76,23.28,2.13,13.5,6.71,26.85,17.54,35.84,9.52,7.91,21.7,11.49,33.79,13,27.63,3.49,56.59-5.68,83.49,3.71a55,55,0,0,1,9.82,4.56,1.5,1.5,0,0,0,1.51-2.59c-25-14.68-54.73-7.18-82-7.77C974.56-541.9,962-543.55,951-549a44.46,44.46,0,0,1-13.94-10.7,47.77,47.77,0,0,1-9.23-18.16,129.26,129.26,0,0,1-3.7-21.13c-.92-8.29-1.8-16.59-2.7-24.89L916-674.64,905.05-775.49c-1.71-15.86-4.58-32.51-1.07-48.32,2.69-12.1,10.21-24.18,22.12-29a26.63,26.63,0,0,1,8.68-1.89c1.92-.08,1.93-3.08,0-3Z" transform="translate(-504.89 857.68)" fill="#fff"/></g></svg>